<svg xmlns="http://www.w3.org/2000/svg" viewBox="0 0 959 595" width="959" height="595">
  <g fill="#D3D3D3" stroke="#FFFFFF" stroke-width="0.5" stroke-linejoin="round">
    <path id="AL" data-name="Alabama" d="M652.4,376.1L685.3,373.2L690.8,392.8L698.8,421.6L701.7,427.8L704.3,431.2L703.7,433.6L706.1,434.8L703.1,438.1L703.6,441.0L702.3,445.1L705.1,451.8L704.4,458.1L707.2,464.1L697.6,465.4L656.1,469.5L655.7,472.6L660.6,476.6L660.1,480.5L661.8,482.3L659.2,486.0L656.6,487.0L651.2,483.6L650.2,477.9L648.6,477.4L647.1,481.9L646.8,486.1L641.6,485.4L637.3,450.1L638.1,405.6L638.7,379.8L636.6,377.6L652.4,376.1Z"/>
    <path id="AZ" data-name="Arizona" d="M251.5,320.3L233.3,451.4L193.8,445.5L172.4,433.2L126.5,405.9L129.3,401.2L133.2,401.0L134.6,399.2L134.4,394.8L131.9,394.1L132.3,385.4L136.8,382.9L138.0,379.6L138.3,374.0L141.3,370.5L144.6,369.5L147.4,367.0L144.4,363.0L143.0,356.4L140.7,352.1L141.3,349.2L143.1,346.3L143.5,341.9L142.9,337.2L144.4,323.6L151.3,324.0L152.9,327.2L154.8,327.4L157.4,323.9L161.0,305.4L225.1,316.3L251.5,320.3Z"/>
    <path id="AR" data-name="Arkansas" d="M518.1,348.1L597.8,345.2L599.7,349.6L597.0,352.5L594.3,357.1L606.3,356.3L606.0,360.7L603.3,362.2L603.0,365.8L599.7,369.8L600.4,375.4L598.8,379.6L597.0,380.4L598.2,382.4L595.3,384.3L594.2,388.4L592.3,389.5L592.9,394.1L589.5,395.6L589.7,397.1L586.0,401.1L587.3,403.6L584.0,407.5L581.3,414.8L584.9,417.7L583.3,419.7L584.6,424.5L583.3,427.8L536.1,429.2L527.8,429.4L527.5,417.0L524.7,416.0L521.0,417.2L519.0,415.1L519.3,374.0L515.5,348.2L518.1,348.1Z"/>
    <path id="CA" data-name="California" d="M30.5,153.3L44.6,157.3L66.6,163.8L83.7,168.3L73.7,207.5L66.2,236.1L83.5,262.1L100.2,287.3L113.7,307.6L123.6,322.4L141.3,349.2L140.7,352.1L143.0,356.4L144.4,363.0L147.4,367.0L144.6,369.5L141.3,370.5L138.3,374.0L138.0,379.6L136.8,382.9L132.3,385.4L131.9,394.1L134.4,394.8L134.6,399.2L133.2,401.0L129.3,401.2L103.6,398.1L82.7,395.6L81.1,392.1L82.1,387.3L81.9,381.4L80.2,376.8L75.6,369.9L69.3,363.1L67.6,364.1L64.9,362.6L65.9,360.4L63.7,355.0L59.1,355.0L52.3,349.7L51.8,346.7L47.5,342.1L41.7,340.7L37.2,338.0L30.9,337.0L28.5,333.2L30.9,327.0L30.0,325.8L31.9,321.5L28.0,316.9L29.1,312.2L27.4,311.5L25.5,306.8L23.6,305.3L23.4,302.6L19.1,291.5L16.6,287.8L18.0,280.4L19.2,281.4L21.6,277.4L20.2,272.7L17.0,272.4L13.9,267.6L13.3,264.4L14.4,261.8L13.4,257.6L15.1,251.7L18.3,252.6L19.3,244.0L17.7,244.4L16.2,248.4L12.5,248.3L9.3,244.0L10.2,238.6L8.8,233.6L6.1,230.0L5.0,226.5L1.7,219.2L3.1,217.7L3.0,209.5L5.3,205.7L5.7,199.0L3.2,191.5L0.0,186.8L0.4,182.5L7.6,174.0L9.4,170.9L9.4,168.1L13.0,161.8L13.5,155.3L12.2,153.3L14.4,148.6L30.5,153.3Z"/>
    <path id="CO" data-name="Colorado" d="M283.7,230.1L321.4,234.5L350.4,237.1L385.0,239.7L383.5,263.1L379.2,333.3L361.7,332.0L337.2,330.1L291.1,325.5L281.0,324.1L251.5,320.3L255.3,293.3L255.3,290.7L258.1,271.0L264.2,227.6L283.7,230.1Z"/>
    <path id="CT" data-name="Connecticut" d="M878.4,171.7L899.3,166.8L899.4,167.2L902.9,180.6L902.4,182.9L900.8,182.9L894.0,186.5L885.1,188.2L882.1,192.3L878.3,194.3L874.1,198.0L872.3,195.7L875.8,192.2L874.2,190.6L871.2,173.2L878.4,171.7Z"/>
    <path id="DE" data-name="Delaware" d="M850.3,231.9L849.3,235.0L847.9,236.9L849.0,240.4L852.3,243.3L854.2,248.7L859.3,253.8L861.0,253.7L863.6,261.4L852.2,263.6L844.3,235.2L846.7,232.0L850.3,231.9Z"/>
    <path id="DC" data-name="District of Columbia" d="M826.1,256.4L828.8,258.2L826.9,261.1L824.9,258.1L826.1,256.4Z"/>
    <path id="FL" data-name="Florida" d="M697.6,465.4L707.2,464.1L710.7,470.5L737.9,468.7L763.5,466.9L765.1,471.7L767.5,471.2L767.7,466.4L766.3,462.3L767.9,460.2L772.7,461.4L778.2,461.5L780.9,471.2L785.1,482.0L793.2,495.8L804.7,510.0L803.5,511.3L805.2,518.5L810.3,526.0L818.9,541.3L821.0,546.2L821.8,551.4L822.7,570.6L820.8,571.3L819.8,577.4L820.8,579.2L817.4,584.0L815.7,583.3L812.1,585.7L805.6,587.7L803.2,585.7L803.6,582.1L797.3,572.8L793.4,571.5L790.4,573.3L787.1,568.1L785.7,563.6L780.6,559.1L779.1,555.9L779.1,550.9L776.6,550.4L777.6,553.2L775.5,554.3L767.2,542.8L764.2,540.1L769.0,530.1L765.1,531.2L762.8,534.4L759.5,530.3L761.3,517.2L760.5,506.7L757.7,504.6L756.5,501.3L752.5,501.1L747.3,496.1L743.3,494.4L742.7,491.0L740.0,490.1L737.4,486.6L729.1,482.5L722.6,484.5L723.4,488.0L721.2,487.6L713.4,492.9L704.6,494.9L704.5,492.4L702.1,489.6L691.0,483.9L683.3,481.7L676.6,481.6L671.1,482.7L659.2,486.0L661.8,482.3L660.1,480.5L660.6,476.6L655.7,472.6L656.1,469.5L697.6,465.4Z"/>
    <path id="GA" data-name="Georgia" d="M731.9,367.0L728.6,372.5L728.6,375.0L735.5,379.1L737.4,378.4L741.0,383.1L742.0,385.7L745.7,390.1L750.4,392.3L753.6,396.3L759.2,399.5L759.4,402.1L763.4,405.9L769.1,408.7L770.9,412.3L771.9,417.2L774.8,418.4L778.8,424.1L779.5,428.0L784.3,429.3L780.7,437.9L780.5,442.0L779.0,445.9L779.4,449.6L777.5,451.5L778.2,461.5L772.7,461.4L767.9,460.2L766.3,462.3L767.7,466.4L767.5,471.2L765.1,471.7L763.5,466.9L737.9,468.7L710.7,470.5L707.2,464.1L704.4,458.1L705.1,451.8L702.3,445.1L703.6,441.0L703.1,438.1L706.1,434.8L703.7,433.6L704.3,431.2L701.7,427.8L698.8,421.6L690.8,392.8L685.3,373.2L709.3,370.2L722.4,368.7L731.9,367.0Z"/>
    <path id="ID" data-name="Idaho" d="M183.5,25.2L178.6,48.2L182.2,55.5L181.0,61.7L183.4,65.0L186.3,66.7L186.3,68.3L190.9,75.6L191.0,78.2L194.7,81.4L194.6,82.9L199.1,83.7L195.2,91.7L193.8,96.9L194.7,100.8L191.4,102.7L192.0,105.3L190.8,107.6L193.7,110.6L198.2,108.3L200.3,106.1L202.7,108.9L201.9,110.7L202.7,115.3L204.4,120.5L206.1,122.4L205.2,126.8L206.7,129.0L210.0,129.9L210.8,137.7L212.4,139.2L214.5,137.4L219.6,138.4L223.6,137.1L225.7,138.6L229.7,138.2L230.3,139.6L233.7,139.3L238.2,135.1L240.1,139.6L242.7,142.4L233.6,199.4L214.7,196.4L183.1,190.7L133.2,180.1L142.5,138.5L146.3,131.5L145.4,129.4L142.4,128.3L142.0,124.9L147.0,117.6L148.9,117.2L151.3,114.2L151.5,112.1L153.9,109.7L155.8,106.0L160.6,100.0L159.9,96.6L156.6,94.2L155.3,89.9L156.1,85.9L154.9,81.5L155.6,79.7L162.3,49.6L168.7,21.9L183.5,25.2Z"/>
    <path id="IL" data-name="Illinois" d="M580.9,205.3L612.3,203.6L629.0,202.2L628.8,206.7L631.9,211.7L635.3,220.0L640.1,275.0L638.6,279.4L641.3,284.2L641.9,288.2L640.0,291.8L639.6,294.9L636.8,300.1L634.8,300.7L635.5,303.6L634.3,304.9L633.6,310.4L634.4,311.9L632.3,315.4L634.3,319.4L627.0,322.2L626.5,324.7L628.4,327.6L626.3,329.7L619.3,326.6L617.2,327.0L614.7,331.3L615.7,332.5L612.8,332.5L608.2,326.1L609.6,324.5L607.8,320.1L607.6,316.5L601.4,311.9L599.5,312.6L597.3,309.6L591.7,305.2L591.5,301.5L594.2,295.3L593.6,293.2L595.2,290.2L592.6,288.7L588.6,287.9L586.7,290.2L585.2,288.9L583.6,281.3L577.4,276.6L571.7,270.9L569.1,263.8L568.7,259.1L570.1,255.7L570.2,251.4L574.9,248.6L575.2,245.0L577.4,242.6L577.4,238.5L574.4,235.3L575.3,231.2L582.0,229.7L587.2,226.4L587.5,222.8L589.7,221.2L590.1,216.6L589.4,213.7L585.5,211.7L584.8,209.3L580.9,205.3Z"/>
    <path id="IN" data-name="Indiana" d="M661.4,216.3L681.6,214.1L681.8,215.6L685.1,243.3L688.7,275.8L687.5,276.9L689.7,283.1L686.6,283.6L683.5,286.2L678.8,285.7L679.5,290.2L676.7,292.5L675.8,295.6L672.8,297.0L671.8,303.1L669.9,304.8L665.6,303.1L664.6,300.5L661.0,303.8L661.6,306.3L657.6,307.6L656.2,305.4L651.9,308.2L650.6,310.7L645.7,307.7L643.4,308.7L641.7,307.2L640.4,309.0L635.9,309.6L634.4,311.9L633.6,310.4L634.3,304.9L635.5,303.6L634.8,300.7L636.8,300.1L639.6,294.9L640.0,291.8L641.9,288.2L641.3,284.2L638.6,279.4L640.1,275.0L635.3,220.0L637.1,221.4L642.4,220.9L647.2,217.8L661.4,216.3Z"/>
    <path id="IA" data-name="Iowa" d="M567.4,182.8L570.0,182.7L570.3,186.2L572.9,188.3L571.0,191.2L571.9,196.4L573.3,200.1L579.5,202.4L580.9,205.3L584.8,209.3L585.5,211.7L589.4,213.7L590.1,216.6L589.7,221.2L587.5,222.8L587.2,226.4L582.0,229.7L575.3,231.2L574.4,235.3L577.4,238.5L577.4,242.6L575.2,245.0L574.9,248.6L570.2,251.4L570.1,255.7L568.1,255.0L564.4,250.4L562.6,250.6L537.8,252.2L513.8,253.0L494.0,252.7L492.0,249.7L492.9,243.7L491.2,238.4L491.3,232.5L488.3,230.5L487.8,227.3L488.9,224.5L487.7,220.4L485.4,218.8L482.4,208.3L479.2,203.2L480.7,199.8L481.3,195.2L482.6,193.5L480.5,191.2L481.1,187.1L480.2,185.2L482.4,184.7L567.4,182.8Z"/>
    <path id="KS" data-name="Kansas" d="M386.1,263.2L502.1,266.4L503.9,268.6L509.6,270.3L505.7,277.1L508.0,279.4L510.8,284.9L514.7,286.0L515.3,336.5L415.0,335.1L379.2,333.3L383.5,263.1L386.1,263.2Z"/>
    <path id="KY" data-name="Kentucky" d="M705.9,281.5L710.3,284.2L712.9,282.2L719.8,283.1L721.5,280.5L723.9,279.4L725.2,283.2L727.3,283.6L730.2,286.4L730.7,293.4L733.5,297.6L736.9,300.6L738.1,303.1L742.0,305.3L744.4,305.3L738.4,312.6L732.2,316.9L732.5,318.7L730.0,320.6L730.1,322.7L726.7,324.0L725.9,326.7L716.5,331.3L716.3,331.8L700.6,333.5L686.9,334.3L683.3,335.0L662.9,336.2L639.9,338.9L635.8,338.2L636.4,342.4L613.5,343.9L611.3,344.3L612.1,341.3L614.9,342.1L615.7,332.5L614.7,331.3L617.2,327.0L619.3,326.6L626.3,329.7L628.4,327.6L626.5,324.7L627.0,322.2L634.3,319.4L632.3,315.4L634.4,311.9L635.9,309.6L640.4,309.0L641.7,307.2L643.4,308.7L645.7,307.7L650.6,310.7L651.9,308.2L656.2,305.4L657.6,307.6L661.6,306.3L661.0,303.8L664.6,300.5L665.6,303.1L669.9,304.8L671.8,303.1L672.8,297.0L675.8,295.6L676.7,292.5L679.5,290.2L678.8,285.7L683.5,286.2L686.6,283.6L689.7,283.1L687.5,276.9L688.7,275.8L695.5,275.0L699.7,279.3L700.2,281.3L705.9,281.5Z"/>
    <path id="LA" data-name="Louisiana" d="M536.1,429.2L583.3,427.8L585.2,430.4L583.9,431.5L583.9,436.2L586.9,439.0L587.7,445.8L585.7,451.3L581.2,454.9L580.3,460.1L578.3,459.7L578.4,468.3L576.0,468.6L577.7,473.2L576.3,474.9L613.7,472.8L612.2,480.5L615.8,485.4L616.9,489.2L619.4,491.4L613.7,495.0L613.4,497.3L618.4,498.5L620.2,494.7L624.6,498.0L624.5,501.0L622.2,502.4L617.6,501.6L618.3,503.7L617.0,507.1L621.0,509.8L627.3,510.2L629.7,513.5L631.5,513.8L628.6,518.0L625.0,517.5L621.7,513.6L614.2,512.0L613.9,508.1L610.4,509.6L610.8,512.8L609.3,516.0L606.7,516.7L604.5,513.4L599.8,513.5L598.4,517.1L595.3,518.3L591.9,516.4L589.2,516.2L586.4,510.7L581.7,508.4L580.0,508.8L578.0,504.1L572.7,504.9L572.5,502.0L567.5,505.0L568.2,507.2L564.3,509.4L558.1,508.6L550.8,505.6L545.7,504.4L534.8,505.8L533.4,506.8L531.6,504.5L536.1,496.1L534.5,491.7L535.9,489.3L535.1,486.1L537.0,483.7L539.0,477.6L538.5,472.7L532.9,463.4L532.6,458.3L528.2,453.3L527.8,429.4L536.1,429.2Z"/>
    <path id="ME" data-name="Maine" d="M911.0,138.7L908.6,137.6L908.3,135.3L905.0,133.5L896.0,104.2L891.4,89.9L897.3,85.0L895.8,83.7L897.4,79.6L899.6,77.3L898.7,76.1L900.6,73.3L898.8,69.6L898.7,63.3L900.5,60.7L899.7,54.2L906.6,33.9L909.6,33.8L910.9,37.9L913.4,38.8L917.6,34.9L920.6,34.0L922.3,31.7L927.6,34.0L931.0,36.1L938.7,60.9L940.2,66.9L946.0,66.9L946.1,69.6L948.2,71.6L947.7,74.2L951.0,76.9L953.7,75.2L959.0,82.2L956.8,86.8L954.5,86.0L953.7,89.0L951.3,89.0L951.7,91.2L948.7,91.8L945.5,98.0L943.3,95.1L941.6,95.3L943.5,98.6L940.3,101.4L938.6,98.9L937.3,100.9L933.2,102.1L932.2,98.8L930.0,100.2L931.1,102.4L930.2,108.0L931.1,109.2L928.9,112.8L925.6,112.6L924.7,116.0L922.3,117.0L921.0,119.9L918.4,120.1L917.0,117.9L914.5,122.8L916.1,125.0L913.7,126.6L914.1,128.7L911.8,132.1L911.0,138.7Z"/>
    <path id="MD" data-name="Maryland" d="M849.4,276.4L849.0,276.5L848.5,276.6L849.4,276.4ZM780.3,247.7L844.3,235.2L852.2,263.6L863.6,261.4L862.2,271.8L859.6,272.8L855.1,275.2L851.5,277.0L850.8,273.2L849.0,272.0L850.7,270.0L847.2,266.8L846.7,268.6L842.9,269.0L840.8,265.1L842.0,264.9L840.9,259.5L841.6,257.1L838.6,250.1L839.6,245.5L842.4,244.1L841.9,239.6L839.8,240.6L840.2,242.9L836.3,246.7L835.5,249.6L836.6,256.3L835.5,259.8L837.4,264.9L840.4,268.1L840.7,270.9L842.7,273.4L842.4,275.4L837.5,272.6L831.4,272.1L828.9,268.9L826.0,271.6L824.2,269.1L826.1,265.0L826.9,261.1L828.8,258.2L826.1,256.4L824.9,258.1L822.2,256.4L818.3,256.0L817.7,252.6L815.4,251.1L812.6,251.2L809.4,245.2L806.4,245.8L803.1,244.2L801.8,246.2L798.9,246.7L798.7,249.3L793.3,248.6L790.5,252.6L788.0,252.3L785.3,256.8L782.2,259.6L780.3,247.7Z"/>
    <path id="MA" data-name="Massachusetts" d="M908.6,143.5L910.3,143.4L912.0,147.2L912.1,150.6L910.3,154.2L911.2,157.7L914.9,157.2L918.1,160.2L918.5,163.2L920.5,163.4L921.4,165.9L926.6,166.9L931.4,163.3L931.1,166.7L923.9,171.6L921.0,172.5L918.7,170.9L916.2,172.3L916.5,173.9L913.7,175.7L911.3,172.0L910.7,171.4L908.5,170.2L906.2,165.1L903.8,165.8L899.4,167.2L899.3,166.8L878.4,171.7L871.2,173.2L870.6,172.4L870.9,156.6L884.4,153.6L903.6,149.4L904.8,146.9L908.6,143.5Z"/>
    <path id="MI" data-name="Michigan" d="M704.7,211.8L681.8,215.6L681.6,214.1L661.4,216.3L647.2,217.8L650.4,214.4L652.2,208.9L654.0,205.5L655.1,200.9L655.4,194.5L654.3,187.6L648.0,174.7L649.0,169.5L647.3,163.5L650.5,156.9L650.8,151.6L649.9,148.9L652.5,147.5L652.5,143.6L656.6,142.2L659.3,137.7L660.0,146.0L661.7,146.2L663.4,141.8L662.7,134.7L663.8,132.8L668.1,131.2L666.1,126.4L668.5,121.9L672.1,121.2L676.5,123.4L680.5,123.3L682.9,126.3L685.9,126.2L691.3,128.5L693.1,128.2L696.5,132.7L694.6,135.7L697.2,138.8L698.5,142.6L698.7,151.3L695.7,153.9L695.4,158.4L691.7,160.5L690.2,166.0L691.2,168.0L695.5,169.3L698.2,166.0L701.0,159.6L706.4,156.6L709.4,157.9L711.6,161.0L714.7,170.3L715.6,175.1L718.3,180.6L717.7,189.2L715.2,190.9L714.6,187.9L712.9,189.0L711.8,196.3L708.7,199.4L708.4,204.9L704.7,209.9L704.7,211.8ZM659.5,123.6L660.0,126.3L658.0,127.1L658.4,123.1L659.5,123.6ZM627.2,141.6L624.5,139.4L625.7,136.0L621.9,135.8L623.1,132.5L622.9,128.5L619.3,126.0L617.3,123.2L610.2,121.5L608.1,122.4L601.0,119.5L584.2,116.0L582.2,112.2L579.2,110.9L585.2,108.2L587.8,105.2L594.7,103.6L599.0,99.9L601.1,99.6L602.6,97.1L607.3,93.3L609.6,90.2L613.1,88.0L616.8,89.4L611.1,96.9L609.9,99.4L610.3,103.7L613.1,100.2L618.6,100.2L623.0,102.1L627.4,108.1L629.6,109.0L633.5,107.6L634.6,108.9L638.7,109.3L646.7,103.2L651.1,102.2L657.0,101.8L660.8,99.6L663.9,99.1L665.2,105.5L668.5,106.0L671.5,104.6L673.0,105.9L674.8,103.8L679.3,102.6L680.4,110.6L683.0,113.8L686.2,114.2L686.3,111.9L689.4,111.5L691.3,113.7L690.2,115.6L681.2,115.3L677.1,116.8L672.2,114.6L671.2,117.3L672.1,119.3L670.0,119.1L666.6,116.3L661.3,115.0L658.6,115.1L656.4,118.4L652.3,119.6L647.6,119.5L645.9,120.9L645.7,123.5L640.9,126.2L640.9,123.1L638.6,122.7L638.0,125.9L634.3,126.4L632.8,128.0L630.8,133.6L626.8,141.0L627.2,141.6ZM602.4,76.9L598.7,80.0L596.6,80.6L596.6,78.2L606.0,72.0L604.5,75.9L602.4,76.9Z"/>
    <path id="MN" data-name="Minnesota" d="M553.5,109.1L552.2,108.1L549.1,110.1L549.6,123.8L548.7,125.2L544.2,127.3L540.6,132.4L540.5,135.7L542.3,135.9L544.5,138.7L542.7,142.3L543.2,146.3L542.3,154.8L546.8,158.9L550.3,159.1L552.1,161.6L557.2,163.9L558.2,166.9L563.1,170.7L565.8,171.4L569.2,176.4L568.9,180.1L570.0,182.7L567.4,182.8L482.4,184.7L482.6,143.0L478.8,140.3L476.0,135.8L480.5,130.9L480.9,128.2L480.3,119.0L478.4,116.6L477.1,111.5L477.4,105.3L476.8,104.3L476.4,89.5L473.4,81.7L472.3,77.2L471.9,67.9L472.9,64.8L471.0,57.5L503.0,57.6L502.9,48.8L505.9,49.0L507.9,50.7L510.1,62.6L511.7,64.0L516.8,64.3L517.4,65.4L523.4,65.8L524.1,68.3L529.2,67.5L529.2,66.5L533.1,65.1L536.6,65.5L540.7,67.3L541.9,69.6L544.2,69.3L546.5,74.4L547.4,72.2L551.3,71.0L552.1,73.1L556.7,74.4L556.8,76.5L559.2,78.0L563.9,76.9L566.6,74.5L570.3,72.9L571.9,76.2L574.5,75.3L577.7,75.9L581.3,75.1L585.7,77.8L589.7,77.0L589.4,78.3L584.4,81.5L577.2,84.2L572.6,86.9L566.2,93.2L563.4,97.0L559.1,101.4L552.2,107.2L553.5,109.1Z"/>
    <path id="MS" data-name="Mississippi" d="M631.5,378.0L636.6,377.6L638.7,379.8L638.1,405.6L637.3,450.1L641.6,485.4L639.5,486.6L634.7,486.5L632.6,485.1L627.9,486.5L621.4,489.6L619.4,491.4L616.9,489.2L615.8,485.4L612.2,480.5L613.7,472.8L576.3,474.9L577.7,473.2L576.0,468.6L578.4,468.3L578.3,459.7L580.3,460.1L581.2,454.9L585.7,451.3L587.7,445.8L586.9,439.0L583.9,436.2L583.9,431.5L585.2,430.4L583.3,427.8L584.6,424.5L583.3,419.7L584.9,417.7L581.3,414.8L584.0,407.5L587.3,403.6L586.0,401.1L589.7,397.1L589.5,395.6L592.9,394.1L592.3,389.5L594.2,388.4L595.3,384.3L598.2,382.4L597.0,380.4L631.5,378.0Z"/>
    <path id="MO" data-name="Missouri" d="M562.6,250.6L564.4,250.4L568.1,255.0L570.1,255.7L568.7,259.1L569.1,263.8L571.7,270.9L577.4,276.6L583.6,281.3L585.2,288.9L586.7,290.2L588.6,287.9L592.6,288.7L595.2,290.2L593.6,293.2L594.2,295.3L591.5,301.5L591.7,305.2L597.3,309.6L599.5,312.6L601.4,311.9L607.6,316.5L607.8,320.1L609.6,324.5L608.2,326.1L612.8,332.5L615.7,332.5L614.9,342.1L612.1,341.3L611.3,344.3L610.1,344.4L609.1,344.4L609.6,350.2L606.3,356.3L594.3,357.1L597.0,352.5L599.7,349.6L597.8,345.2L518.1,348.1L515.5,348.2L515.3,336.5L514.7,286.0L510.8,284.9L508.0,279.4L505.7,277.1L509.6,270.3L503.9,268.6L502.1,266.4L497.8,260.3L494.0,252.7L513.8,253.0L537.8,252.2L562.6,250.6Z"/>
    <path id="MT" data-name="Montana" d="M366.1,52.4L364.0,78.4L360.2,122.5L358.4,144.4L358.2,144.4L327.9,141.4L276.5,135.1L244.5,130.4L242.7,142.4L240.1,139.6L238.2,135.1L233.7,139.3L230.3,139.6L229.7,138.2L225.7,138.6L223.6,137.1L219.6,138.4L214.5,137.4L212.4,139.2L210.8,137.7L210.0,129.9L206.7,129.0L205.2,126.8L206.1,122.4L204.4,120.5L202.7,115.3L201.9,110.7L202.7,108.9L200.3,106.1L198.2,108.3L193.7,110.6L190.8,107.6L192.0,105.3L191.4,102.7L194.7,100.8L193.8,96.9L195.2,91.7L199.1,83.7L194.6,82.9L194.7,81.4L191.0,78.2L190.9,75.6L186.3,68.3L186.3,66.7L183.4,65.0L181.0,61.7L182.2,55.5L178.6,48.2L183.5,25.2L252.2,38.3L283.4,43.0L366.1,52.4Z"/>
    <path id="NE" data-name="Nebraska" d="M366.6,191.6L395.1,193.7L447.8,195.9L448.3,197.1L456.9,201.5L459.0,199.2L461.4,199.8L469.3,199.9L478.2,204.4L479.3,207.7L482.4,208.3L485.4,218.8L487.7,220.4L488.9,224.5L487.8,227.3L488.3,230.5L491.3,232.5L491.2,238.4L492.9,243.7L492.0,249.7L494.0,252.7L497.8,260.3L502.1,266.4L386.1,263.2L383.5,263.1L385.0,239.7L350.4,237.1L354.3,190.6L366.6,191.6Z"/>
    <path id="NV" data-name="Nevada" d="M133.2,180.1L183.1,190.7L161.0,305.4L157.4,323.9L154.8,327.4L152.9,327.2L151.3,324.0L144.4,323.6L142.9,337.2L143.5,341.9L143.1,346.3L141.3,349.2L123.6,322.4L113.7,307.6L100.2,287.3L83.5,262.1L66.2,236.1L73.7,207.5L83.7,168.3L105.3,173.8L133.2,180.1Z"/>
    <path id="NH" data-name="New Hampshire" d="M891.4,89.9L896.0,104.2L905.0,133.5L908.3,135.3L908.6,137.6L911.0,138.7L910.3,143.4L908.6,143.5L904.8,146.9L903.6,149.4L884.4,153.6L882.5,152.3L881.8,148.9L882.9,147.3L881.9,144.1L880.8,134.3L882.5,129.1L882.6,123.7L883.5,121.5L882.0,115.9L886.8,112.4L888.4,107.9L886.0,104.6L887.2,100.4L886.4,98.2L887.1,91.8L890.9,91.5L891.4,89.9Z"/>
    <path id="NJ" data-name="New Jersey" d="M863.5,196.9L869.9,198.8L869.4,205.9L867.0,208.0L866.3,211.9L871.4,212.5L872.4,215.0L873.2,227.7L869.9,238.1L867.0,241.5L865.2,248.0L862.7,244.6L857.3,243.9L850.0,240.2L848.9,236.9L848.7,236.4L849.3,235.0L850.3,231.9L854.5,229.0L854.4,227.2L858.8,222.2L859.2,220.0L853.3,216.5L852.5,213.7L850.2,213.4L849.4,210.8L851.1,206.3L849.2,204.2L852.4,198.5L852.8,195.8L854.6,193.7L863.5,196.9Z"/>
    <path id="NM" data-name="New Mexico" d="M281.0,324.1L291.1,325.5L337.2,330.1L361.7,332.0L360.8,343.6L360.1,343.6L355.7,401.5L353.5,425.1L351.8,448.4L282.6,441.9L281.9,444.2L283.8,447.1L251.1,443.1L249.7,453.6L233.3,451.4L251.5,320.3L281.0,324.1Z"/>
    <path id="NY" data-name="New York" d="M857.2,105.6L858.5,110.3L858.7,114.7L861.2,118.4L861.8,122.8L861.0,127.9L864.0,133.7L863.5,135.8L867.0,138.9L870.3,154.6L870.9,156.6L870.6,172.4L871.2,173.2L874.2,190.6L875.8,192.2L872.3,195.7L874.1,198.0L881.8,198.2L882.9,196.4L889.1,194.9L892.1,193.4L896.3,188.5L897.3,191.0L900.3,191.4L895.0,196.3L883.1,204.5L877.9,206.9L874.2,207.5L871.8,209.2L869.4,205.9L869.9,198.8L863.5,196.9L854.6,193.7L853.5,192.2L850.9,192.7L847.0,189.5L846.6,186.0L844.0,183.9L842.7,184.3L840.2,181.5L766.3,196.1L765.3,190.3L765.2,189.9L774.4,181.5L775.4,178.1L778.3,175.4L776.4,171.7L774.9,171.2L772.7,165.1L781.9,160.7L790.5,159.2L794.1,159.2L798.3,160.9L800.4,159.5L807.5,158.2L811.5,155.7L815.3,150.6L818.2,149.8L817.0,143.6L817.7,139.6L813.5,137.9L813.7,134.9L819.4,129.7L821.1,125.8L827.1,116.5L833.6,111.0L844.5,109.2L857.2,105.6Z"/>
    <path id="NC" data-name="North Carolina" d="M765.8,325.1L778.3,323.5L792.6,321.1L858.5,308.0L862.5,316.7L857.3,316.9L856.8,318.2L851.0,320.9L850.3,322.3L846.3,323.6L846.9,325.2L851.6,323.0L852.5,323.8L857.8,321.6L860.0,323.3L863.1,321.7L865.5,327.0L865.0,329.8L862.8,330.6L859.4,337.2L853.3,338.7L853.1,342.8L856.6,346.2L858.8,346.5L856.2,353.7L852.7,353.6L847.0,355.5L843.2,357.7L837.7,363.3L833.7,370.1L832.4,377.9L828.2,377.0L821.7,379.8L796.6,361.7L775.6,364.8L775.5,362.1L772.0,358.6L770.3,360.3L769.8,357.9L746.7,360.3L741.8,361.9L738.1,364.6L731.9,367.0L722.4,368.7L709.3,370.2L709.1,364.7L712.8,363.7L713.7,359.7L717.8,355.7L722.9,354.9L727.0,350.8L731.6,348.9L734.9,343.1L737.2,341.2L738.0,343.4L744.6,337.9L748.1,338.3L749.7,333.7L753.0,332.0L752.9,326.5L765.8,325.1Z"/>
    <path id="ND" data-name="North Dakota" d="M471.0,57.5L472.9,64.8L471.9,67.9L472.3,77.2L473.4,81.7L476.4,89.5L476.8,104.3L477.4,105.3L477.1,111.5L478.4,116.6L480.3,119.0L480.9,128.2L360.2,122.5L364.0,78.4L366.1,52.4L471.0,57.5Z"/>
    <path id="OH" data-name="Ohio" d="M753.6,198.7L758.7,229.7L756.4,231.3L758.0,233.7L758.5,237.2L757.0,243.2L756.8,251.9L751.2,260.5L749.1,261.8L747.0,260.6L745.5,264.2L743.4,264.4L741.9,269.1L742.8,271.7L741.2,274.2L738.1,271.0L735.6,277.1L737.0,280.5L735.1,282.1L734.8,285.2L730.2,286.4L727.3,283.6L725.2,283.2L723.9,279.4L721.5,280.5L719.8,283.1L712.9,282.2L710.3,284.2L705.9,281.5L700.2,281.3L699.7,279.3L695.5,275.0L688.7,275.8L685.1,243.3L681.8,215.6L704.7,211.8L711.8,214.1L714.3,215.7L715.7,213.7L720.0,216.8L722.5,217.6L730.0,213.4L734.7,213.4L739.1,208.3L745.8,203.0L753.6,198.7L753.6,198.7Z"/>
    <path id="OK" data-name="Oklahoma" d="M415.0,335.1L515.3,336.5L515.5,348.2L519.3,374.0L519.0,415.1L511.6,412.6L509.7,410.0L504.7,407.7L503.5,409.8L498.6,409.7L497.5,408.4L493.0,410.7L491.1,409.5L487.1,410.6L483.3,414.2L481.8,412.1L477.8,410.4L473.7,410.4L472.3,407.7L467.5,412.9L465.9,409.9L463.7,410.8L462.1,408.9L457.6,407.0L454.2,410.0L452.8,406.8L450.1,406.3L448.6,403.7L445.0,402.6L442.5,404.7L441.0,402.8L437.2,402.9L433.1,400.8L429.3,400.9L428.1,396.4L422.0,395.9L419.7,396.6L415.7,391.9L414.2,392.1L416.1,346.8L382.7,345.1L360.8,343.6L361.7,332.0L379.2,333.3L415.0,335.1Z"/>
    <path id="OR" data-name="Oregon" d="M58.2,60.5L59.7,60.6L62.3,63.9L63.0,67.0L61.8,73.9L69.2,78.7L77.0,77.0L81.4,77.9L86.0,80.4L86.1,82.1L95.5,81.2L97.3,82.8L102.1,83.4L106.5,82.2L113.9,82.0L120.3,83.1L122.8,82.1L155.3,89.9L156.6,94.2L159.9,96.6L160.6,100.0L155.8,106.0L153.9,109.7L151.5,112.1L151.3,114.2L148.9,117.2L147.0,117.6L142.0,124.9L142.4,128.3L145.4,129.4L146.3,131.5L142.5,138.5L133.2,180.1L105.3,173.8L83.7,168.3L66.6,163.8L44.6,157.3L30.5,153.3L14.4,148.6L12.8,145.3L13.8,137.8L15.6,132.8L14.6,128.2L17.3,125.1L20.3,119.5L24.6,113.8L27.4,108.5L34.9,90.2L35.4,87.6L39.5,79.8L43.5,68.5L44.6,61.9L46.5,58.4L53.6,57.0L55.6,60.3L58.2,60.5Z"/>
    <path id="PA" data-name="Pennsylvania" d="M765.3,190.3L766.3,196.1L840.2,181.5L842.7,184.3L844.0,183.9L846.6,186.0L847.0,189.5L850.9,192.7L853.5,192.2L854.6,193.7L852.8,195.8L852.4,198.5L849.2,204.2L851.1,206.3L849.4,210.8L850.2,213.4L852.5,213.7L853.3,216.5L859.2,220.0L858.8,222.2L854.4,227.2L854.5,229.0L850.3,231.9L846.7,232.0L844.3,235.2L780.3,247.7L762.2,250.8L758.7,229.7L753.6,198.7L753.6,198.7L756.6,196.9L765.2,189.9L765.3,190.3Z"/>
    <path id="RI" data-name="Rhode Island" d="M911.3,172.0L913.7,175.7L910.5,177.1L911.3,172.0ZM903.8,165.8L906.2,165.1L908.5,170.2L910.7,171.4L908.6,171.5L907.7,175.3L908.4,180.2L902.4,182.9L902.9,180.6L899.4,167.2L903.8,165.8Z"/>
    <path id="SC" data-name="South Carolina" d="M738.1,364.6L741.8,361.9L746.7,360.3L769.8,357.9L770.3,360.3L772.0,358.6L775.5,362.1L775.6,364.8L796.6,361.7L821.7,379.8L818.6,381.5L815.2,386.1L812.2,392.7L812.3,397.6L809.8,402.0L805.5,402.7L805.0,405.6L801.1,409.4L799.1,413.1L795.4,415.2L791.6,419.4L791.5,421.2L787.8,423.7L784.3,429.3L779.5,428.0L778.8,424.1L774.8,418.4L771.9,417.2L770.9,412.3L769.1,408.7L763.4,405.9L759.4,402.1L759.2,399.5L753.6,396.3L750.4,392.3L745.7,390.1L742.0,385.7L741.0,383.1L737.4,378.4L735.5,379.1L728.6,375.0L728.6,372.5L731.9,367.0L738.1,364.6Z"/>
    <path id="SD" data-name="South Dakota" d="M360.2,122.5L480.9,128.2L480.5,130.9L476.0,135.8L478.8,140.3L482.6,143.0L482.4,184.7L480.2,185.2L481.1,187.1L480.5,191.2L482.6,193.5L481.3,195.2L480.7,199.8L479.2,203.2L482.4,208.3L479.3,207.7L478.2,204.4L469.3,199.9L461.4,199.8L459.0,199.2L456.9,201.5L448.3,197.1L447.8,195.9L395.1,193.7L366.6,191.6L354.3,190.6L358.2,144.4L358.4,144.4L360.2,122.5Z"/>
    <path id="TN" data-name="Tennessee" d="M636.4,342.4L635.8,338.2L639.9,338.9L662.9,336.2L683.3,335.0L686.9,334.3L700.6,333.5L716.3,331.8L716.5,331.3L752.9,326.5L753.0,332.0L749.7,333.7L748.1,338.3L744.6,337.9L738.0,343.4L737.2,341.2L734.9,343.1L731.6,348.9L727.0,350.8L722.9,354.9L717.8,355.7L713.7,359.7L712.8,363.7L709.1,364.7L709.3,370.2L685.3,373.2L652.4,376.1L636.6,377.6L631.5,378.0L597.0,380.4L598.8,379.6L600.4,375.4L599.7,369.8L603.0,365.8L603.3,362.2L606.0,360.7L606.3,356.3L609.6,350.2L609.1,344.4L610.1,344.4L611.3,344.3L613.5,343.9L636.4,342.4Z"/>
    <path id="TX" data-name="Texas" d="M382.7,345.1L416.1,346.8L414.2,392.1L415.7,391.9L419.7,396.6L422.0,395.9L428.1,396.4L429.3,400.9L433.1,400.8L437.2,402.9L441.0,402.8L442.5,404.7L445.0,402.6L448.6,403.7L450.1,406.3L452.8,406.8L454.2,410.0L457.6,407.0L462.1,408.9L463.7,410.8L465.9,409.9L467.5,412.9L472.3,407.7L473.7,410.4L477.8,410.4L481.8,412.1L483.3,414.2L487.1,410.6L491.1,409.5L493.0,410.7L497.5,408.4L498.6,409.7L503.5,409.8L504.7,407.7L509.7,410.0L511.6,412.6L519.0,415.1L521.0,417.2L524.7,416.0L527.5,417.0L527.8,429.4L528.2,453.3L532.6,458.3L532.9,463.4L538.5,472.7L539.0,477.6L537.0,483.7L535.1,486.1L535.9,489.3L534.5,491.7L536.1,496.1L531.6,504.5L533.4,506.8L530.1,507.0L519.7,510.3L515.9,508.6L515.2,504.8L512.6,507.5L510.7,506.9L509.8,510.2L511.9,511.6L512.3,515.9L508.5,520.5L502.5,526.2L490.2,532.4L489.0,531.4L485.3,532.9L485.2,531.5L480.2,532.5L477.8,529.5L476.4,530.2L481.7,536.2L477.8,538.0L474.1,536.9L473.5,541.0L468.9,545.3L464.0,553.2L460.9,561.5L458.6,560.8L458.0,563.9L460.4,563.1L459.1,569.2L457.5,569.4L457.4,572.8L459.3,574.7L459.8,581.7L462.0,584.1L462.5,588.5L464.3,592.4L457.8,594.7L455.2,591.7L450.3,590.4L443.7,590.6L438.2,586.6L434.0,586.2L430.8,583.0L426.5,581.9L423.6,578.9L421.9,571.9L418.3,567.6L418.9,564.1L417.3,560.3L418.0,557.0L415.6,553.2L413.4,552.8L410.1,549.3L409.1,545.1L406.2,541.2L402.0,537.9L400.2,530.8L398.3,528.8L395.9,523.1L395.2,518.5L392.8,515.1L388.7,511.9L387.8,509.9L383.9,507.9L381.1,502.6L372.4,501.0L367.1,500.9L362.7,498.8L361.5,501.2L356.7,501.6L352.7,506.1L349.9,513.7L348.7,513.7L345.6,518.1L342.2,518.0L337.5,514.0L325.5,507.3L323.4,504.1L318.8,500.7L316.0,493.8L316.3,487.9L313.4,482.7L313.0,478.5L311.1,475.6L303.8,471.0L300.2,465.2L297.1,463.0L294.0,458.0L289.3,455.1L286.5,448.7L283.8,447.1L281.9,444.2L282.6,441.9L351.8,448.4L353.5,425.1L355.7,401.5L360.1,343.6L360.8,343.6L382.7,345.1Z"/>
    <path id="UT" data-name="Utah" d="M214.7,196.4L233.6,199.4L229.9,222.5L264.2,227.6L258.1,271.0L255.3,290.7L255.3,293.3L251.5,320.3L225.1,316.3L161.0,305.4L183.1,190.7L214.7,196.4Z"/>
    <path id="VT" data-name="Vermont" d="M886.4,98.2L887.2,100.4L886.0,104.6L888.4,107.9L886.8,112.4L882.0,115.9L883.5,121.5L882.6,123.7L882.5,129.1L880.8,134.3L881.9,144.1L882.9,147.3L881.8,148.9L882.5,152.3L884.4,153.6L870.9,156.6L870.3,154.6L867.0,138.9L863.5,135.8L864.0,133.7L861.0,127.9L861.8,122.8L861.2,118.4L858.7,114.7L858.5,110.3L857.2,105.6L873.7,101.8L886.4,98.2Z"/>
    <path id="VA" data-name="Virginia" d="M859.6,272.8L862.2,271.8L860.8,276.2L858.7,278.1L858.4,283.7L856.5,293.0L853.8,295.4L852.2,292.5L852.2,285.1L855.1,275.2L859.6,272.8ZM849.0,276.5L849.4,276.4L848.5,276.6L849.0,276.5ZM801.0,250.0L811.6,256.0L812.6,251.2L815.4,251.1L817.7,252.6L818.3,256.0L822.2,256.4L824.9,258.1L826.9,261.1L826.1,265.0L824.2,266.4L823.5,270.0L824.8,272.2L829.4,270.5L831.0,274.0L837.5,274.2L839.8,276.7L845.4,278.8L844.5,285.7L847.6,290.3L845.7,293.2L846.0,296.1L848.6,297.4L846.7,300.7L842.3,297.8L841.6,299.3L845.4,301.2L854.4,300.0L858.5,308.0L792.6,321.1L778.3,323.5L765.8,325.1L752.9,326.5L716.5,331.3L725.9,326.7L726.7,324.0L730.1,322.7L730.0,320.6L732.5,318.7L732.2,316.9L738.4,312.6L744.4,305.3L744.4,307.3L747.4,310.8L750.8,312.3L753.0,311.8L756.0,308.2L758.9,310.2L763.3,308.2L770.8,302.5L771.7,303.8L774.5,301.2L773.9,297.0L775.3,293.0L778.0,289.1L778.7,284.7L781.4,279.8L781.9,274.2L785.4,276.9L788.5,277.3L790.0,275.1L792.3,266.2L794.9,267.9L801.4,257.0L801.0,250.0Z"/>
    <path id="WA" data-name="Washington" d="M168.7,21.9L162.3,49.6L155.6,79.7L154.9,81.5L156.1,85.9L155.3,89.9L122.8,82.1L120.3,83.1L113.9,82.0L106.5,82.2L102.1,83.4L97.3,82.8L95.5,81.2L86.1,82.1L86.0,80.4L81.4,77.9L77.0,77.0L69.2,78.7L61.8,73.9L63.0,67.0L62.3,63.9L59.7,60.6L58.2,60.5L55.6,60.3L53.6,57.0L51.1,55.3L48.4,56.0L46.1,53.1L47.6,50.3L50.1,49.3L48.4,43.8L50.0,31.2L49.2,29.2L50.1,20.3L48.2,16.1L49.0,9.2L52.0,5.4L54.3,8.4L59.6,13.0L63.8,14.2L67.7,16.5L71.9,16.6L73.3,19.1L76.8,20.0L77.9,25.5L79.8,25.7L78.3,32.3L77.7,38.6L79.3,38.4L79.3,32.9L81.1,28.0L85.0,23.6L83.6,21.0L84.5,17.3L84.2,12.9L85.7,10.2L85.7,6.6L83.5,5.4L82.0,2.2L83.3,0.0L168.7,21.9ZM79.5,15.4L81.7,15.0L80.1,19.3L78.2,17.0L79.5,15.4ZM76.7,8.0L79.1,5.6L80.3,9.7L78.8,12.5L75.6,10.7L76.7,8.0Z"/>
    <path id="WV" data-name="West Virginia" d="M758.7,229.7L762.2,250.8L780.3,247.7L782.2,259.6L785.3,256.8L788.0,252.3L790.5,252.6L793.3,248.6L798.7,249.3L798.9,246.7L801.8,246.2L803.1,244.2L806.4,245.8L809.4,245.2L812.6,251.2L811.6,256.0L801.0,250.0L801.4,257.0L794.9,267.9L792.3,266.2L790.0,275.1L788.5,277.3L785.4,276.9L781.9,274.2L781.4,279.8L778.7,284.7L778.0,289.1L775.3,293.0L773.9,297.0L774.5,301.2L771.7,303.8L770.8,302.5L763.3,308.2L758.9,310.2L756.0,308.2L753.0,311.8L750.8,312.3L747.4,310.8L744.4,307.3L744.4,305.3L742.0,305.3L738.1,303.1L736.9,300.6L733.5,297.6L730.7,293.4L730.2,286.4L734.8,285.2L735.1,282.1L737.0,280.5L735.6,277.1L738.1,271.0L741.2,274.2L742.8,271.7L741.9,269.1L743.4,264.4L745.5,264.2L747.0,260.6L749.1,261.8L751.2,260.5L756.8,251.9L757.0,243.2L758.5,237.2L758.0,233.7L756.4,231.3L758.7,229.7Z"/>
    <path id="WI" data-name="Wisconsin" d="M579.2,110.9L582.2,112.2L584.2,116.0L601.0,119.5L608.1,122.4L610.2,121.5L617.3,123.2L619.3,126.0L622.9,128.5L623.1,132.5L621.9,135.8L625.7,136.0L624.5,139.4L627.2,141.6L626.9,144.4L623.8,145.2L621.5,150.8L620.9,154.5L622.8,155.0L625.1,152.4L627.4,147.6L630.6,145.5L632.8,139.4L636.0,137.9L636.1,140.9L634.0,143.9L630.3,154.0L629.5,159.4L630.0,163.2L628.4,164.6L627.3,170.0L628.2,174.4L627.0,177.4L625.6,184.8L626.6,190.5L629.0,195.4L629.0,202.2L612.3,203.6L580.9,205.3L579.5,202.4L573.3,200.1L571.9,196.4L571.0,191.2L572.9,188.3L570.3,186.2L570.0,182.7L568.9,180.1L569.2,176.4L565.8,171.4L563.1,170.7L558.2,166.9L557.2,163.9L552.1,161.6L550.3,159.1L546.8,158.9L542.3,154.8L543.2,146.3L542.7,142.3L544.5,138.7L542.3,135.9L540.5,135.7L540.6,132.4L544.2,127.3L548.7,125.2L549.6,123.8L549.1,110.1L552.2,108.1L553.5,109.1L557.1,109.2L568.0,104.7L571.9,102.4L573.4,103.9L571.4,107.1L576.9,110.7L579.2,110.9Z"/>
    <path id="WY" data-name="Wyoming" d="M276.5,135.1L327.9,141.4L358.2,144.4L354.3,190.6L350.4,237.1L321.4,234.5L283.7,230.1L264.2,227.6L229.9,222.5L233.6,199.4L242.7,142.4L244.5,130.4L276.5,135.1Z"/>
  </g>
</svg>
